<svg xmlns="http://www.w3.org/2000/svg" viewBox="0 0 24 24" width="24" height="24" color="#000000" fill="none">
    <defs />
    <path fill="currentColor" d="M12.5,3.75 C7.944,3.75 4.25,7.444 4.25,12 C4.25,16.556 7.944,20.25 12.5,20.25 C14.358,20.25 16.072,19.636 17.45,18.6 C17.781,18.352 18.252,18.418 18.5,18.75 C18.749,19.081 18.683,19.551 18.351,19.8 C16.722,21.024 14.694,21.75 12.5,21.75 C7.115,21.75 2.75,17.385 2.75,12 C2.75,6.615 7.115,2.25 12.5,2.25 C17.885,2.25 22.25,6.615 22.25,12 L22.25,12.9 C22.25,14.806 20.705,16.35 18.8,16.35 C17.57,16.35 16.491,15.707 15.88,14.739 C15.083,15.722 13.865,16.35 12.5,16.35 C10.098,16.35 8.15,14.403 8.15,12 C8.15,9.598 10.098,7.65 12.5,7.65 C13.59,7.65 14.587,8.051 15.35,8.714 L15.35,8.4 C15.35,7.986 15.686,7.65 16.1,7.65 C16.514,7.65 16.85,7.986 16.85,8.4 L16.85,12.9 C16.85,13.977 17.723,14.85 18.8,14.85 C19.877,14.85 20.75,13.977 20.75,12.9 L20.75,12 C20.75,7.444 17.056,3.75 12.5,3.75 Z M15.35,12 C15.35,10.426 14.074,9.15 12.5,9.15 C10.926,9.15 9.65,10.426 9.65,12 C9.65,13.574 10.926,14.85 12.5,14.85 C14.074,14.85 15.35,13.574 15.35,12 Z" />
</svg>