<svg xmlns="http://www.w3.org/2000/svg" viewBox="0 0 24 24" width="24" height="24" color="currentColor" fill="none">
    <path d="M11.9961 1.25C17.9332 1.25 22.7461 6.06294 22.7461 12C22.7461 17.9371 17.9332 22.75 11.9961 22.75C6.05903 22.75 1.24609 17.9371 1.24609 12C1.24609 6.06294 6.05903 1.25 11.9961 1.25ZM11.9961 2.75C6.88746 2.75 2.74609 6.89137 2.74609 12C2.74609 17.1086 6.88746 21.25 11.9961 21.25C17.1047 21.25 21.2461 17.1086 21.2461 12C21.2461 6.89137 17.1047 2.75 11.9961 2.75ZM11.9961 10.75C12.4103 10.75 12.7461 11.0858 12.7461 11.5V16C12.7461 16.4142 12.4103 16.75 11.9961 16.75C11.5819 16.75 11.2461 16.4142 11.2461 16V11.5C11.2461 11.0858 11.5819 10.75 11.9961 10.75ZM11.9961 7.10352C12.4932 7.10352 12.8965 7.50685 12.8965 8.00391V8.01367C12.8965 8.51073 12.4932 8.91406 11.9961 8.91406C11.499 8.91406 11.0957 8.51073 11.0957 8.01367V8.00391C11.0957 7.50685 11.499 7.10352 11.9961 7.10352Z" fill="currentColor" />
</svg>