<svg xmlns="http://www.w3.org/2000/svg" viewBox="0 0 24 24" width="24" height="24" color="currentColor" fill="none">
    <path d="M12 1.75C13.4892 1.75 14.9255 1.78112 16.2754 1.83887C17.4726 1.89009 18.457 1.92976 19.2588 2.0918C20.0995 2.26171 20.7921 2.57464 21.4023 3.18945C22.6167 4.41312 22.6298 5.95046 22.71 8.22363C22.7359 8.95905 22.75 9.72053 22.75 10.5C22.75 11.2795 22.7359 12.0409 22.71 12.7764C22.6298 15.0495 22.6167 16.5869 21.4023 17.8105C20.7921 18.4254 20.0995 18.7383 19.2588 18.9082C18.5654 19.0483 17.7358 19.0959 16.75 19.1396V20.7705C16.7498 21.5875 16.0875 22.2498 15.2705 22.25C14.9171 22.25 14.5749 22.1236 14.3066 21.8936L12.127 20.0244C11.5385 19.5198 11.3761 19.3938 11.2012 19.3271C11.0267 19.2607 10.8137 19.2466 10.0166 19.2314C9.23043 19.2165 8.46451 19.1928 7.72461 19.1611C6.52739 19.1099 5.54304 19.0702 4.74121 18.9082C3.90049 18.7383 3.20788 18.4254 2.59766 17.8105C1.38331 16.5869 1.37023 15.0495 1.29004 12.7764C1.26409 12.0409 1.25 11.2795 1.25 10.5C1.25 9.72053 1.26409 8.95905 1.29004 8.22363C1.37023 5.95045 1.38331 4.41312 2.59766 3.18945C3.20788 2.57464 3.90049 2.26171 4.74121 2.0918C5.54302 1.92976 6.52743 1.89009 7.72461 1.83887C9.0745 1.78112 10.5108 1.75 12 1.75ZM12 3.25C10.5312 3.25 9.116 3.28108 7.78809 3.33789C6.54487 3.39108 5.69784 3.42917 5.03809 3.5625C4.41752 3.68796 4.01715 3.88838 3.66211 4.24609C2.94627 4.96753 2.8763 5.8035 2.78906 8.27637C2.76375 8.99392 2.75 9.7379 2.75 10.5C2.75 11.2621 2.76375 12.0061 2.78906 12.7236C2.8763 15.1965 2.94627 16.0325 3.66211 16.7539C4.01714 17.1116 4.41752 17.312 5.03809 17.4375C5.69784 17.5708 6.54489 17.6089 7.78809 17.6621C8.51587 17.6932 9.27016 17.7168 10.0449 17.7314C10.73 17.7444 11.2587 17.7442 11.7354 17.9258C12.2113 18.1072 12.5966 18.4511 13.1035 18.8857L15.25 20.7256V18.4219C15.25 18.0194 15.5677 17.6891 15.9697 17.6729C16.0506 17.6696 16.1316 17.6655 16.2119 17.6621C17.4551 17.6089 18.3022 17.5708 18.9619 17.4375C19.5825 17.312 19.9829 17.1116 20.3379 16.7539C21.0537 16.0325 21.1237 15.1965 21.2109 12.7236C21.2363 12.0061 21.25 11.2621 21.25 10.5C21.25 9.7379 21.2363 8.99392 21.2109 8.27637C21.1237 5.8035 21.0537 4.96753 20.3379 4.24609C19.9829 3.88838 19.5825 3.68796 18.9619 3.5625C18.3022 3.42917 17.4551 3.39108 16.2119 3.33789C14.884 3.28108 13.4688 3.25 12 3.25ZM13 11.75C13.4142 11.75 13.75 12.0858 13.75 12.5C13.75 12.9142 13.4142 13.25 13 13.25H7.5C7.08579 13.25 6.75 12.9142 6.75 12.5C6.75 12.0858 7.08579 11.75 7.5 11.75H13ZM16.5 7.75C16.9142 7.75 17.25 8.08579 17.25 8.5C17.25 8.91421 16.9142 9.25 16.5 9.25H7.5C7.08579 9.25 6.75 8.91421 6.75 8.5C6.75 8.08579 7.08579 7.75 7.5 7.75H16.5Z" fill="currentColor" />
</svg>