<svg xmlns="http://www.w3.org/2000/svg" viewBox="0 0 24 24" width="24" height="24" color="currentColor" fill="none">
    <defs />
    <path fill="currentColor" d="M9.592,22.479 C4.814,21.386 1.25,17.109 1.25,12 C1.25,6.063 6.063,1.25 12,1.25 C17.937,1.25 22.75,6.063 22.75,12 C22.75,17.109 19.186,21.386 14.408,22.479 C14.337,22.507 14.26,22.524 14.179,22.529 C13.476,22.674 12.747,22.75 12,22.75 C11.253,22.75 10.524,22.674 9.821,22.529 C9.74,22.524 9.663,22.507 9.592,22.479 Z M2.75,12 C2.75,16.109 5.429,19.592 9.135,20.798 L9.161,19.646 C7.498,19.173 6.322,17.938 5.898,17.317 C5.664,16.975 5.752,16.508 6.094,16.274 C6.436,16.041 6.903,16.128 7.137,16.471 C7.407,16.867 8.167,17.662 9.195,18.074 L9.202,17.761 C9.202,17.719 9.207,17.677 9.215,17.636 L9.394,16.704 C9.161,16.596 8.876,16.454 8.579,16.279 C8.213,16.064 7.81,15.791 7.457,15.462 C7.109,15.136 6.772,14.722 6.593,14.218 C6.184,13.066 5.878,11.277 7.023,9.56 L7.254,7.27 C7.278,7.03 7.417,6.817 7.626,6.696 C7.834,6.576 8.089,6.563 8.309,6.662 L10.164,7.498 C10.284,7.468 10.437,7.43 10.608,7.393 C10.999,7.308 11.54,7.209 12.002,7.21 C12.463,7.21 13.003,7.308 13.393,7.393 C13.564,7.431 13.716,7.468 13.836,7.498 L15.691,6.662 C15.911,6.563 16.166,6.576 16.374,6.696 C16.583,6.817 16.722,7.03 16.746,7.27 L16.978,9.56 C18.122,11.277 17.816,13.066 17.407,14.218 C17.228,14.722 16.891,15.136 16.542,15.462 C16.19,15.791 15.787,16.064 15.421,16.279 C15.124,16.454 14.839,16.596 14.606,16.704 L14.785,17.636 C14.793,17.677 14.798,17.719 14.799,17.761 L14.865,20.798 C18.571,19.592 21.25,16.109 21.25,12 C21.25,6.891 17.109,2.75 12,2.75 C6.891,2.75 2.75,6.891 2.75,12 Z M13.372,21.149 L13.3,17.857 L13.019,16.39 C12.949,16.028 13.153,15.669 13.5,15.544 L13.503,15.543 L13.518,15.537 C13.532,15.532 13.555,15.523 13.585,15.511 C13.645,15.487 13.734,15.451 13.843,15.403 C14.062,15.306 14.356,15.165 14.662,14.986 C14.97,14.805 15.273,14.595 15.519,14.365 C15.769,14.132 15.924,13.912 15.993,13.717 C16.34,12.74 16.511,11.462 15.644,10.27 C15.566,10.163 15.518,10.037 15.505,9.905 L15.358,8.457 L14.208,8.976 C14.045,9.049 13.862,9.062 13.691,9.013 L13.69,9.012 L13.682,9.01 L13.649,9.001 C13.619,8.992 13.575,8.98 13.519,8.966 C13.408,8.937 13.251,8.898 13.073,8.859 C12.702,8.778 12.293,8.71 12.002,8.71 C11.71,8.71 11.3,8.777 10.928,8.859 C10.75,8.897 10.593,8.937 10.481,8.966 C10.425,8.98 10.381,8.992 10.351,9.001 L10.318,9.01 L10.31,9.012 L10.309,9.012 C10.138,9.062 9.955,9.049 9.792,8.976 L8.642,8.457 L8.495,9.905 C8.482,10.037 8.434,10.163 8.356,10.27 C7.489,11.462 7.66,12.74 8.007,13.717 C8.076,13.912 8.231,14.132 8.481,14.365 C8.727,14.595 9.03,14.805 9.338,14.986 C9.644,15.165 9.938,15.306 10.157,15.403 C10.266,15.451 10.355,15.487 10.415,15.511 C10.445,15.523 10.468,15.532 10.482,15.537 L10.497,15.543 L10.5,15.544 C10.846,15.669 11.051,16.028 10.981,16.39 L10.7,17.857 L10.628,21.149 C11.076,21.215 11.534,21.25 12,21.25 C12.466,21.25 12.924,21.215 13.372,21.149 Z" />
</svg>