<svg xmlns="http://www.w3.org/2000/svg" viewBox="0 0 24 24" width="24" height="24" color="currentColor" fill="none">
    <defs />
    <path fill="currentColor" d="M14.92,2.787 L14.978,2.788 C16.503,2.827 17.73,2.857 18.713,3.029 C19.743,3.208 20.58,3.552 21.286,4.261 C21.99,4.968 22.332,5.793 22.508,6.805 C22.676,7.77 22.701,8.967 22.733,10.45 L22.734,10.508 C22.755,11.505 22.755,12.495 22.734,13.492 L22.733,13.55 C22.701,15.033 22.676,16.23 22.508,17.195 C22.332,18.207 21.99,19.032 21.286,19.739 C20.58,20.448 19.743,20.792 18.713,20.971 C17.73,21.143 16.503,21.174 14.978,21.212 L14.92,21.213 C12.967,21.262 11.033,21.262 9.08,21.213 L9.022,21.212 C7.497,21.174 6.27,21.143 5.287,20.971 C4.257,20.792 3.42,20.448 2.714,19.739 C2.01,19.032 1.668,18.207 1.492,17.195 C1.324,16.23 1.299,15.033 1.267,13.55 L1.266,13.492 C1.245,12.495 1.245,11.505 1.266,10.508 L1.267,10.45 L1.267,10.45 C1.299,8.967 1.324,7.77 1.492,6.805 C1.668,5.793 2.01,4.968 2.714,4.261 C3.42,3.552 4.257,3.208 5.287,3.029 C6.27,2.857 7.497,2.827 9.022,2.788 L9.08,2.787 C11.033,2.738 12.967,2.738 14.92,2.787 Z M2.921,7.38 C2.818,8.173 2.795,9.174 2.766,10.54 C2.745,11.515 2.745,12.485 2.766,13.46 C2.799,15.015 2.824,16.098 2.97,16.938 C3.109,17.742 3.349,18.251 3.776,18.68 C4.201,19.106 4.717,19.35 5.544,19.494 C6.405,19.644 7.521,19.674 9.118,19.714 C11.046,19.762 12.954,19.762 14.882,19.714 C16.479,19.674 17.595,19.644 18.456,19.494 C19.284,19.35 19.799,19.106 20.224,18.68 C20.651,18.251 20.891,17.742 21.03,16.938 C21.176,16.098 21.201,15.015 21.234,13.46 C21.255,12.485 21.255,11.515 21.234,10.54 C21.205,9.175 21.182,8.173 21.079,7.381 L15.457,10.566 C14.164,11.299 13.113,11.746 12.001,11.746 C10.888,11.746 9.837,11.299 8.544,10.566 Z M9.118,4.286 C7.521,4.326 6.405,4.356 5.544,4.506 C4.717,4.65 4.201,4.894 3.776,5.32 C3.603,5.494 3.461,5.681 3.343,5.895 L9.283,9.261 C10.539,9.972 11.3,10.246 12.001,10.246 C12.701,10.246 13.462,9.972 14.718,9.261 L20.657,5.896 C20.539,5.681 20.397,5.494 20.224,5.32 C19.799,4.894 19.284,4.65 18.456,4.506 C17.595,4.356 16.479,4.326 14.882,4.286 C12.954,4.238 11.046,4.238 9.118,4.286 Z" />
</svg>