<svg xmlns="http://www.w3.org/2000/svg" viewBox="0 0 24 24" width="24" height="24" color="currentColor" fill="none">
    <path fill-rule="evenodd" clip-rule="evenodd" d="M12 1.75C12.4925 1.75 12.9709 1.91601 13.3574 2.22101L21.9521 9.00702C22.4559 9.40502 22.75 10.011 22.75 10.653C22.7497 11.779 21.8629 12.694 20.75 12.745V15.5C20.75 16.893 20.7519 18.013 20.6338 18.892C20.5128 19.792 20.2533 20.549 19.6514 21.151C19.0495 21.753 18.2917 22.013 17.3916 22.134C16.6251 22.237 15.6746 22.247 14.5195 22.248C14.513 22.248 14.5065 22.25 14.5 22.25C14.4935 22.25 14.487 22.249 14.4805 22.249C14.3241 22.249 14.1639 22.25 14 22.25H10C9.83574 22.25 9.67528 22.249 9.51855 22.249C9.51238 22.249 9.50621 22.25 9.5 22.25C9.49313 22.25 9.48632 22.248 9.47949 22.248C8.32485 22.247 7.37468 22.237 6.6084 22.134C5.70829 22.013 4.95055 21.753 4.34863 21.151C3.74672 20.549 3.48723 19.792 3.36621 18.892C3.24812 18.013 3.25 16.893 3.25 15.5V12.745C2.13709 12.694 1.25025 11.779 1.25 10.653C1.25 10.011 1.54409 9.40502 2.04785 9.00702L10.6426 2.22101C11.0291 1.91601 11.5075 1.75 12 1.75ZM12 15.25C11.5189 15.25 11.2081 15.251 10.9727 15.272C10.7476 15.293 10.6659 15.327 10.625 15.351C10.511 15.416 10.4164 15.511 10.3506 15.625C10.327 15.666 10.2929 15.748 10.2725 15.973C10.2511 16.208 10.25 16.519 10.25 17V20.75H13.75V17C13.75 16.519 13.7489 16.208 13.7275 15.973C13.7173 15.86 13.7036 15.783 13.6895 15.729L13.6494 15.625C13.6001 15.54 13.5347 15.465 13.457 15.405L13.375 15.351C13.3341 15.327 13.2524 15.293 13.0273 15.272C12.7919 15.251 12.4811 15.25 12 15.25ZM12 3.25C11.8448 3.25 11.6941 3.30201 11.5723 3.39801L2.97754 10.185C2.83409 10.298 2.75 10.471 2.75 10.653C2.75026 10.983 3.01726 11.25 3.34668 11.25H4L4.07715 11.254C4.45512 11.293 4.75 11.612 4.75 12V15.5C4.75 16.935 4.75202 17.936 4.85352 18.691C4.95217 19.425 5.13242 19.814 5.40918 20.091C5.68594 20.368 6.07482 20.548 6.80859 20.646C7.32231 20.716 7.94968 20.736 8.75 20.744V17C8.75 16.546 8.74942 16.156 8.77832 15.837C8.80817 15.508 8.87447 15.182 9.05176 14.875C9.24921 14.533 9.53306 14.249 9.875 14.052C10.1821 13.874 10.5079 13.808 10.8369 13.778C11.1558 13.749 11.5465 13.75 12 13.75C12.4535 13.75 12.8442 13.749 13.1631 13.778C13.4921 13.808 13.8179 13.874 14.125 14.052L14.251 14.13C14.5369 14.321 14.7756 14.576 14.9482 14.875L15.0098 14.991C15.1416 15.264 15.1956 15.549 15.2217 15.837C15.2506 16.156 15.25 16.546 15.25 17V20.744C16.0503 20.736 16.6777 20.716 17.1914 20.646C17.9252 20.548 18.3141 20.368 18.5908 20.091C18.8676 19.814 19.0478 19.425 19.1465 18.691C19.248 17.936 19.25 16.935 19.25 15.5V12C19.25 11.586 19.5858 11.25 20 11.25H20.6533C20.9827 11.25 21.2497 10.983 21.25 10.653C21.25 10.471 21.1659 10.298 21.0225 10.185L12.4277 3.39801C12.3059 3.30201 12.1552 3.25 12 3.25Z" fill="currentColor" />
</svg>