<svg xmlns="http://www.w3.org/2000/svg" viewBox="0 0 24 24" width="24" height="24" color="currentColor" fill="none">
    <defs />
    <path fill="currentColor" d="M2.75,12 C2.75,14.347 4.653,16.25 7,16.25 L10.5,16.25 C10.914,16.25 11.25,16.586 11.25,17 C11.25,17.414 10.914,17.75 10.5,17.75 L7,17.75 C3.824,17.75 1.25,15.176 1.25,12 C1.25,8.824 3.824,6.25 7,6.25 L10.5,6.25 C10.914,6.25 11.25,6.586 11.25,7 C11.25,7.414 10.914,7.75 10.5,7.75 L7,7.75 C4.653,7.75 2.75,9.653 2.75,12 Z M13.5,6.25 L17,6.25 C20.176,6.25 22.75,8.824 22.75,12 C22.75,15.176 20.176,17.75 17,17.75 L13.5,17.75 C13.086,17.75 12.75,17.414 12.75,17 C12.75,16.586 13.086,16.25 13.5,16.25 L17,16.25 C19.347,16.25 21.25,14.347 21.25,12 C21.25,9.653 19.347,7.75 17,7.75 L13.5,7.75 C13.086,7.75 12.75,7.414 12.75,7 C12.75,6.586 13.086,6.25 13.5,6.25 Z M9,11.25 L15,11.25 C15.414,11.25 15.75,11.586 15.75,12 C15.75,12.414 15.414,12.75 15,12.75 L9,12.75 C8.586,12.75 8.25,12.414 8.25,12 C8.25,11.586 8.586,11.25 9,11.25 Z" />
</svg>