<svg xmlns="http://www.w3.org/2000/svg" viewBox="0 0 24 24" width="24" height="24" color="#D0021B" fill="none">
    <path d="M12.54 1.75C14.1653 1.75 15.4505 1.74927 16.4649 1.86914C17.4958 1.991 18.3448 2.24636 19.0537 2.82812C19.2941 3.02542 19.5146 3.24595 19.7119 3.48633C20.4482 4.38348 20.6665 5.51114 20.7451 6.95898C20.7676 7.37248 20.4506 7.72639 20.0371 7.74902C19.6236 7.77148 19.2697 7.45445 19.2471 7.04102C19.1718 5.65463 18.9685 4.94519 18.5527 4.43848C18.4177 4.27391 18.2671 4.12236 18.1025 3.9873C17.7051 3.66117 17.1784 3.46352 16.2891 3.3584C15.3832 3.25132 14.2021 3.25 12.54 3.25H11.9961C10.0894 3.25 8.73468 3.2515 7.70703 3.38965C6.701 3.52491 6.12144 3.77899 5.69824 4.20215C5.27504 4.62535 5.02101 5.20488 4.88574 6.21094C4.74758 7.23857 4.74609 8.59326 4.74609 10.5V13.5C4.74609 15.4067 4.74761 16.7614 4.88574 17.7891C5.021 18.7951 5.27508 19.3746 5.69824 19.7979C6.12145 20.2211 6.70094 20.4751 7.70703 20.6104C8.73468 20.7485 10.0893 20.75 11.9961 20.75H12.54C14.2021 20.75 15.3832 20.7487 16.2891 20.6416C17.1784 20.5365 17.7051 20.3388 18.1025 20.0127C18.2671 19.8776 18.4177 19.7261 18.5527 19.5615C18.9685 19.0548 19.1718 18.3454 19.2471 16.959C19.2697 16.5455 19.6236 16.2285 20.0371 16.251C20.4506 16.2736 20.7676 16.6275 20.7451 17.041C20.6665 18.4889 20.4482 19.6165 19.7119 20.5137C19.5146 20.7541 19.2941 20.9746 19.0537 21.1719C18.3448 21.7536 17.4958 22.009 16.4649 22.1309C15.4505 22.2507 14.1653 22.249 12.54 22.249L11.9961 22.25C10.1317 22.25 8.65768 22.2514 7.50683 22.0967C6.33475 21.9391 5.38593 21.6074 4.63769 20.8594C3.88935 20.111 3.55704 19.1616 3.39941 17.9893C3.24468 16.8384 3.24609 15.3644 3.24609 13.5V10.5C3.24609 8.63566 3.24469 7.16156 3.39941 6.01074C3.55706 4.83851 3.88942 3.88988 4.63769 3.1416C5.38599 2.39334 6.33456 2.06096 7.50683 1.90332C8.65768 1.74859 10.1317 1.75 11.9961 1.75H12.54ZM15.3926 7.55566C15.6382 7.22218 16.1069 7.15095 16.4404 7.39648H16.4424L16.4443 7.39844C16.4465 7.4001 16.4502 7.40332 16.4541 7.40625C16.4622 7.41224 16.4744 7.42053 16.4893 7.43164C16.5198 7.45437 16.5642 7.48803 16.6201 7.53027C16.7322 7.61491 16.8921 7.73679 17.083 7.88574C17.4642 8.18326 17.9755 8.59282 18.4883 9.03809C18.9976 9.48028 19.5264 9.97277 19.9336 10.4336C20.1363 10.6631 20.3249 10.9034 20.4668 11.1387C20.5962 11.3535 20.7461 11.6597 20.7461 12C20.746 12.3402 20.5962 12.6466 20.4668 12.8613C20.3249 13.0966 20.1363 13.337 19.9336 13.5664C19.5264 14.0272 18.9975 14.5198 18.4883 14.9619C17.9753 15.4073 17.4633 15.8167 17.082 16.1143C16.8912 16.2632 16.7321 16.3851 16.6201 16.4697C16.5642 16.512 16.5197 16.5457 16.4893 16.5684C16.4743 16.5795 16.4622 16.5878 16.4541 16.5938C16.4501 16.5967 16.4465 16.6 16.4443 16.6016L16.4424 16.6035H16.4404C16.107 16.8488 15.6382 16.7775 15.3926 16.4443C15.1471 16.1109 15.2184 15.6412 15.5518 15.3955L15.5537 15.3945L15.5928 15.3652C15.6208 15.3443 15.6626 15.3127 15.7158 15.2725C15.8225 15.1919 15.9764 15.0751 16.1602 14.9316C16.5287 14.644 17.0174 14.2515 17.5039 13.8291C17.9205 13.4674 18.3217 13.0919 18.6436 12.75H8.99609C8.58201 12.75 8.24631 12.414 8.24609 12C8.24611 11.5858 8.58189 11.25 8.99609 11.25H18.6436C18.3218 10.9082 17.9214 10.5326 17.5049 10.1709C17.0183 9.74839 16.5288 9.35606 16.1602 9.06836C15.9764 8.92493 15.8225 8.80811 15.7158 8.72754C15.6626 8.68735 15.6209 8.6557 15.5928 8.63477L15.5537 8.60547L15.5518 8.60449C15.2184 8.35895 15.1473 7.88916 15.3926 7.55566Z" fill="currentColor" />
</svg>