<svg xmlns="http://www.w3.org/2000/svg" viewBox="0 0 24 24" width="24" height="24" color="currentColor" fill="none">
    <defs />
    <path fill="currentColor" d="M12,3.25 C12.414,3.25 12.75,3.586 12.75,4 L12.75,11.25 L20,11.25 C20.414,11.25 20.75,11.586 20.75,12 C20.75,12.414 20.414,12.75 20,12.75 L12.75,12.75 L12.75,20 C12.75,20.414 12.414,20.75 12,20.75 C11.586,20.75 11.25,20.414 11.25,20 L11.25,12.75 L4,12.75 C3.586,12.75 3.25,12.414 3.25,12 C3.25,11.586 3.586,11.25 4,11.25 L11.25,11.25 L11.25,4 C11.25,3.586 11.586,3.25 12,3.25 Z" />
</svg>