<svg xmlns="http://www.w3.org/2000/svg" viewBox="0 0 24 24" width="24" height="24" color="currentColor" fill="none">
    <path d="M11.9961 1.25C17.9332 1.25 22.7461 6.06294 22.7461 12C22.7461 17.9371 17.9332 22.75 11.9961 22.75C6.05903 22.75 1.24609 17.9371 1.24609 12C1.24609 6.06294 6.05903 1.25 11.9961 1.25ZM11.9961 2.75C6.88746 2.75 2.74609 6.89137 2.74609 12C2.74609 17.1086 6.88746 21.25 11.9961 21.25C17.1047 21.25 21.2461 17.1086 21.2461 12C21.2461 6.89137 17.1047 2.75 11.9961 2.75ZM12.0049 16.1016C12.5019 16.1016 12.9053 16.5049 12.9053 17.002C12.9053 17.499 12.5019 17.9023 12.0049 17.9023H11.9961C11.499 17.9023 11.0957 17.499 11.0957 17.002C11.0957 16.5049 11.499 16.1016 11.9961 16.1016H12.0049ZM11.9961 6.25C13.791 6.25 15.2461 7.70507 15.2461 9.5C15.2461 10.6147 14.6845 11.5983 13.832 12.1826C13.5115 12.4023 13.2245 12.6328 13.0225 12.876C12.8234 13.1157 12.7461 13.3186 12.7461 13.5C12.7461 13.9142 12.4103 14.25 11.9961 14.25C11.5819 14.25 11.2461 13.9142 11.2461 13.5C11.2461 12.853 11.5333 12.3223 11.8691 11.918C12.202 11.5173 12.6207 11.1939 12.9834 10.9453C13.4453 10.6287 13.7461 10.0992 13.7461 9.5C13.7461 8.53351 12.9626 7.75 11.9961 7.75C11.0296 7.75 10.2461 8.53351 10.2461 9.5C10.2461 9.91421 9.9103 10.25 9.49609 10.25C9.08188 10.25 8.74609 9.91421 8.74609 9.5C8.74609 7.70507 10.2012 6.25 11.9961 6.25Z" fill="currentColor" />
</svg>