<svg xmlns="http://www.w3.org/2000/svg" viewBox="0 0 24 24" width="24" height="24" color="currentColor" fill="none">
    <defs />
    <path fill="currentColor" d="M12.044,16.61 L10.639,18.562 C10.377,18.928 10.132,19.267 9.908,19.5 C9.684,19.731 9.279,20.07 8.714,19.958 C8.156,19.847 7.906,19.386 7.782,19.09 C7.656,18.79 7.55,18.382 7.434,17.94 L6.933,16.024 C6.654,14.959 6.558,14.653 6.377,14.428 C6.354,14.4 6.33,14.372 6.305,14.346 C6.114,14.141 5.843,14.015 4.853,13.618 L4.799,13.596 C3.824,13.205 3.02,12.883 2.458,12.567 C1.913,12.26 1.325,11.814 1.258,11.062 C1.247,10.945 1.247,10.828 1.258,10.711 C1.328,9.959 1.918,9.515 2.463,9.21 C3.026,8.896 3.831,8.576 4.808,8.189 L16.792,3.431 C18.018,2.944 19.02,2.546 19.808,2.364 C20.611,2.179 21.44,2.16 22.09,2.761 C22.727,3.35 22.804,4.181 22.724,5.017 C22.645,5.848 22.386,6.927 22.067,8.259 L19.647,18.346 C19.444,19.195 19.272,19.912 19.066,20.432 C18.857,20.958 18.523,21.522 17.848,21.7 C17.165,21.881 16.601,21.544 16.172,21.181 C15.75,20.824 15.27,20.278 14.704,19.634 Z M20.144,3.826 C19.482,3.979 18.587,4.332 17.283,4.849 L5.416,9.561 C4.371,9.976 3.661,10.26 3.195,10.52 C2.966,10.648 2.846,10.744 2.786,10.809 C2.764,10.833 2.754,10.849 2.751,10.854 C2.75,10.877 2.75,10.901 2.751,10.924 C2.754,10.929 2.763,10.945 2.786,10.969 C2.846,11.035 2.965,11.131 3.194,11.26 C3.659,11.521 4.368,11.808 5.412,12.226 C5.456,12.243 5.499,12.261 5.542,12.278 C6.34,12.597 6.953,12.842 7.401,13.322 C7.451,13.375 7.499,13.431 7.545,13.488 C7.954,13.995 8.123,14.644 8.347,15.505 C8.359,15.551 8.371,15.597 8.384,15.644 L8.872,17.511 C8.947,17.795 9.005,18.015 9.055,18.186 C9.16,18.049 9.288,17.872 9.453,17.643 L11.012,15.476 C10.882,15.34 10.754,15.2 10.656,15.066 C10.515,14.875 10.375,14.615 10.375,14.277 C10.375,13.939 10.515,13.679 10.656,13.488 C10.776,13.323 10.943,13.15 11.102,12.984 C11.11,12.975 11.118,12.967 11.127,12.958 L14.699,9.234 C14.986,8.936 15.461,8.926 15.76,9.212 C16.059,9.499 16.069,9.974 15.782,10.273 L12.209,13.997 C12.116,14.093 12.045,14.168 11.984,14.234 C11.97,14.25 11.957,14.264 11.946,14.277 C11.957,14.29 11.97,14.305 11.984,14.32 C12.045,14.386 12.116,14.461 12.209,14.557 L12.527,14.889 C12.534,14.896 12.541,14.904 12.549,14.913 L15.79,18.598 C16.407,19.3 16.815,19.76 17.141,20.036 C17.299,20.169 17.395,20.222 17.447,20.242 C17.455,20.245 17.462,20.247 17.466,20.248 L17.469,20.246 C17.473,20.242 17.48,20.235 17.489,20.225 C17.53,20.177 17.593,20.077 17.671,19.879 C17.833,19.471 17.981,18.861 18.202,17.938 L20.594,7.971 C20.931,6.563 21.163,5.587 21.231,4.876 C21.299,4.158 21.172,3.955 21.072,3.862 C20.984,3.781 20.805,3.674 20.144,3.826 Z" />
</svg>