<svg xmlns="http://www.w3.org/2000/svg" viewBox="0 0 24 24" width="24" height="24" color="currentColor" fill="none">
    <defs />
    <path fill="currentColor" d="M11.258,8.238 C11.145,5.636 13.257,3.25 16,3.25 C17.074,3.25 18.067,3.608 18.863,4.209 L21.889,3.758 C22.167,3.717 22.445,3.834 22.609,4.062 C22.773,4.29 22.796,4.59 22.668,4.841 L20.735,8.633 C20.404,15.381 14.829,20.75 8,20.75 C5.705,20.75 3.522,20.247 1.625,19.149 C1.343,18.986 1.198,18.66 1.267,18.342 C1.335,18.024 1.601,17.786 1.925,17.754 C2.627,17.683 3.689,17.481 4.556,17.165 C4.993,17.006 5.334,16.834 5.552,16.667 C5.573,16.651 5.592,16.636 5.609,16.622 C2.574,13.284 1.508,8.172 2.768,3.893 C2.851,3.611 3.091,3.404 3.382,3.363 C3.673,3.321 3.961,3.454 4.119,3.702 C5.729,6.223 8.366,8.095 11.258,8.238 Z M16,4.75 C13.921,4.75 12.346,6.803 12.848,8.797 C12.903,9.013 12.858,9.242 12.727,9.422 C12.596,9.602 12.392,9.714 12.169,9.728 C8.872,9.941 5.896,8.262 3.868,5.879 C3.354,9.464 4.506,13.407 7.031,15.941 C7.171,16.082 7.25,16.272 7.25,16.471 C7.25,17.11 6.842,17.568 6.464,17.858 C6.073,18.158 5.57,18.392 5.069,18.574 C4.884,18.642 4.693,18.705 4.499,18.762 C5.592,19.09 6.768,19.25 8,19.25 C14.076,19.25 19.027,14.434 19.243,8.411 C19.247,8.302 19.274,8.195 19.324,8.097 L20.67,5.456 L18.757,5.742 C18.538,5.774 18.316,5.709 18.15,5.562 C17.576,5.056 16.825,4.75 16,4.75 Z" />
</svg>