<svg xmlns="http://www.w3.org/2000/svg" viewBox="0 0 24 24" width="24" height="24" color="currentColor" fill="none">
    <defs />
    <path fill="currentColor" d="M12,2.75 C13.859,2.75 15.644,2.934 17.303,3.272 L17.431,3.298 C19.325,3.683 20.588,3.94 21.676,5.339 C22.752,6.723 22.751,8.327 22.75,10.812 L22.75,10.812 L22.75,11.036 L22.75,12.964 L22.75,13.188 L22.75,13.188 C22.751,15.673 22.752,17.277 21.676,18.661 C20.588,20.06 19.325,20.317 17.431,20.702 L17.303,20.728 C15.644,21.066 13.859,21.25 12,21.25 C10.142,21.25 8.356,21.066 6.697,20.728 L6.57,20.702 C4.675,20.317 3.413,20.06 2.325,18.661 C1.249,17.277 1.249,15.673 1.25,13.188 L1.25,12.964 L1.25,11.036 L1.25,10.812 C1.249,8.327 1.249,6.723 2.325,5.339 C3.413,3.94 4.675,3.683 6.57,3.298 L6.697,3.272 C8.356,2.934 10.142,2.75 12,2.75 Z M6.996,4.742 C4.944,5.16 4.23,5.333 3.509,6.26 C2.784,7.192 2.75,8.239 2.75,11.036 L2.75,12.964 C2.75,15.761 2.784,16.808 3.509,17.74 C4.23,18.667 4.944,18.84 6.996,19.258 C8.554,19.576 10.239,19.75 12,19.75 C13.761,19.75 15.446,19.576 17.004,19.258 C19.056,18.84 19.77,18.667 20.492,17.74 C21.216,16.808 21.25,15.761 21.25,12.964 L21.25,11.036 C21.25,8.239 21.216,7.192 20.492,6.26 C19.77,5.333 19.056,5.16 17.004,4.742 C15.446,4.424 13.761,4.25 12,4.25 C10.239,4.25 8.554,4.424 6.996,4.742 Z M13.848,9.142 C14.603,9.558 15.226,9.901 15.674,10.219 C16.123,10.538 16.55,10.933 16.691,11.509 C16.77,11.832 16.77,12.168 16.691,12.491 C16.55,13.067 16.123,13.462 15.674,13.781 C15.226,14.099 14.603,14.443 13.848,14.858 L13.767,14.903 C12.942,15.358 12.268,15.729 11.713,15.959 C11.149,16.192 10.571,16.341 9.983,16.187 C9.649,16.099 9.335,15.944 9.067,15.727 C8.574,15.329 8.4,14.759 8.324,14.185 C8.25,13.629 8.25,12.911 8.25,12.054 L8.25,11.947 C8.25,11.089 8.25,10.371 8.324,9.815 C8.4,9.241 8.574,8.671 9.067,8.273 C9.335,8.056 9.649,7.901 9.983,7.813 C10.571,7.659 11.149,7.808 11.713,8.041 C12.268,8.271 12.942,8.642 13.767,9.097 Z M10.363,9.264 C10.226,9.3 10.106,9.362 10.01,9.439 C9.964,9.476 9.869,9.575 9.811,10.013 C9.752,10.458 9.75,11.075 9.75,12 C9.75,12.925 9.752,13.542 9.811,13.987 C9.869,14.425 9.964,14.524 10.01,14.561 C10.106,14.639 10.226,14.7 10.363,14.736 C10.47,14.764 10.67,14.767 11.139,14.573 C11.607,14.379 12.208,14.049 13.083,13.567 C13.889,13.123 14.436,12.82 14.806,12.558 C15.184,12.29 15.226,12.164 15.234,12.134 C15.256,12.046 15.256,11.955 15.234,11.866 C15.226,11.836 15.184,11.71 14.806,11.442 C14.436,11.18 13.889,10.877 13.083,10.433 C12.208,9.951 11.607,9.621 11.139,9.427 C10.67,9.233 10.47,9.236 10.363,9.264 Z" />
</svg>